# xmcd CD database file
#
# Track frame offsets:
#	150
#	30496
#	48570
#	67775
#	76805
#	95791
#	111554
#	128422
#	148120
#	162250
#	176200
#	196215
#	213540
#	230592
#	248813
#	265230
#	283645
#	306752
#	323237
#
# Disc length: 4437 seconds
#
# Revision: 1
# Processed by: cddbd v1.5.2PL0 Copyright (c) Steve Scherf et al.
# Submitted via: CDex 1.70beta2
#
DISCID=15115313
DTITLE=Various Artist - クリスマス・タイム
DYEAR=2005
DGENRE=Pop
TTITLE0=ワム！ - ラスト・クリスマス（プディング・ミックス）
TTITLE1=マライア・キャリー - 恋人たちのクリスマス
TTITLE2=ブリトニー・スピアーズ - マイ・オンリー・ウィッシュ
TTITLE3=ジェシカ・シンプソン - レット・イット・スノウ
TTITLE4=イン・シンク - メリー・クリスマス、ハッピー・ホリデイ
TTITLE5=デスティニーズ・チャイルド - 8デイズ・オブ・クリスマス
TTITLE6=TLC - スレイ・ライド 〜そりすべり〜
TTITLE7=アウトキャスト - プレイヤーズ・ボール
TTITLE8=B2K - サンタが街にやってくる
TTITLE9=ジョー - ディス・クリスマス
TTITLE10=グロリア・エステファン - とっておきの愛
TTITLE11=R.ケリー - ワールド・クリスマス
TTITLE12=グラディス・ナイト＆ザ・ピップス - ザット・スペシャル・タイム・オブ・イヤー
TTITLE13=マイケル・ボルトン - もろびとこぞりて
TTITLE14=ステップス - メリー・クリスマス・エヴリバディ
TTITLE15=ウエストライフ - アイ・ハヴ・ア・ドリーム
TTITLE16=シンディ・ローパー - アーリー・クリスマス・モーニング
TTITLE17=アルバート・ハモンド - アンダー・ザ・クリスマス・ツリー
TTITLE18=ダリル・ホール＆ジョン・オーツ - ジングル・ベル・ロック
EXTD=YEAR: 2005
EXTT0=
EXTT1=
EXTT2=
EXTT3=
EXTT4=
EXTT5=
EXTT6=
EXTT7=
EXTT8=
EXTT9=
EXTT10=
EXTT11=
EXTT12=
EXTT13=
EXTT14=
EXTT15=
EXTT16=
EXTT17=
EXTT18=
PLAYORDER=
